<svg width="100" height="60" viewBox="0 0 100 60" fill="none" xmlns="http://www.w3.org/2000/svg">
<path d="M52.8423 32.9654C51.7953 32.9654 50.9793 32.7348 50.3942 32.2735C49.8091 31.8122 49.5166 31.3344 49.5166 30.8402C49.5166 30.346 49.7013 29.967 50.0708 29.7035C50.4404 29.4069 50.8869 29.2586 51.4104 29.2586C51.9647 29.2586 52.5498 29.4399 53.1656 29.8023C53.7815 30.1647 54.305 30.7414 54.7361 31.5321C55.198 32.29 55.429 33.2949 55.429 34.547C55.429 36.425 55.2442 38.3031 54.8747 40.1812C54.536 42.0264 54.1818 43.8056 53.8123 45.5189C53.4428 47.1993 53.258 48.7479 53.258 50.1647C53.258 52.1746 53.5659 53.8221 54.1818 55.1071C54.8285 56.425 55.9525 57.084 57.5538 57.084C58.2312 57.084 58.8163 56.9852 59.309 56.7875C59.8017 56.5898 60.2636 56.2932 60.6947 55.8979L60.8795 56.0956C60.4176 56.5239 59.9095 56.8534 59.3552 57.084C58.8009 57.3476 58.1696 57.4794 57.4614 57.4794C55.6137 57.4794 54.228 56.7545 53.3042 55.3048C52.4112 53.855 51.9647 51.911 51.9647 49.4728C51.9647 48.1219 52.1032 46.7381 52.3804 45.3213C52.6575 43.9044 52.9809 42.4876 53.3504 41.0708C53.7199 39.654 54.0433 38.2867 54.3204 36.9687C54.5975 35.6178 54.7361 34.3493 54.7361 33.1631C54.7361 32.2405 54.4128 31.4498 53.7661 30.7908C53.1502 30.0988 52.3958 29.7529 51.5028 29.7529C51.0409 29.7529 50.6713 29.8682 50.3942 30.0988C50.117 30.2965 49.9785 30.5766 49.9785 30.939C49.9785 31.4003 50.2556 31.7957 50.8099 32.1252C51.395 32.4217 52.0724 32.57 52.8423 32.57C55.5829 32.57 58.0465 31.944 60.2328 30.6919C62.4192 29.4069 64.1282 27.6771 65.36 25.5025C66.6225 23.2949 67.2538 20.8072 67.2538 18.0395C67.2538 15.5684 66.6841 13.2619 65.5448 11.1203C64.4054 8.97858 62.8195 7.11697 60.7871 5.53542C58.7547 3.92092 56.3836 2.66886 53.6737 1.77924C50.9947 0.85667 48.1 0.395385 44.9899 0.395385C42.2184 0.395385 39.6163 0.790772 37.1836 1.58155C34.7817 2.37232 32.6877 3.47611 30.9017 4.89291C29.1156 6.27677 27.7145 7.92422 26.6983 9.83526C25.6821 11.7133 25.174 13.7397 25.174 15.9143C25.174 18.2537 25.7745 20.2965 26.9754 22.0428C28.1764 23.7891 29.8701 25.14 32.0564 26.0956C34.2428 27.0511 36.7987 27.5288 39.7241 27.5288C42.0028 27.5288 44.0814 27.084 45.9599 26.1944C47.8383 25.3048 49.3318 24.1021 50.4404 22.5865C51.549 21.0708 52.1032 19.3904 52.1032 17.5453C52.1032 15.4036 51.318 13.6903 49.7475 12.4053L50.0247 12.1582C51.6875 13.5091 52.519 15.2883 52.519 17.4959C52.519 19.4069 51.9493 21.1532 50.8099 22.7348C49.6705 24.3163 48.1308 25.5848 46.1908 26.5404C44.2508 27.4629 42.0798 27.9242 39.6779 27.9242C36.7217 27.9242 34.1196 27.43 31.8717 26.4415C29.6237 25.4201 27.8839 24.0198 26.6521 22.2405C25.4203 20.4613 24.8045 18.369 24.8045 15.9638C24.8045 13.7232 25.3126 11.6474 26.3288 9.73641C27.3758 7.79242 28.8077 6.09555 30.6245 4.6458C32.4721 3.19604 34.6123 2.05931 37.045 1.23558C39.4777 0.411861 42.126 0 44.9899 0C48.1924 0 51.164 0.461285 53.9047 1.38385C56.6453 2.30642 59.0473 3.59143 61.1104 5.23888C63.1736 6.85338 64.7749 8.74794 65.9143 10.9226C67.0537 13.0972 67.6234 15.4695 67.6234 18.0395C67.6234 20.8731 66.9767 23.4267 65.6833 25.7002C64.39 27.9407 62.6347 29.7199 60.4176 31.0379C58.2004 32.3229 55.6753 32.9654 52.8423 32.9654ZM62.0343 17.1499C62.8965 16.0626 63.8357 15.0741 64.8519 14.1845C65.8681 13.2619 66.8997 12.4712 67.9467 11.8122H70.3486C69.5788 12.0428 68.7165 12.4382 67.7619 12.9984C66.8073 13.5255 65.8681 14.1845 64.9443 14.9753C64.0205 15.7331 63.1582 16.5568 62.3576 17.4465C60.8487 19.2586 59.4476 21.285 58.1542 23.5255C56.8917 25.7331 55.6445 28.0231 54.4128 30.3954C53.2118 32.7348 51.9339 35.0082 50.5789 37.2158C49.224 39.3904 47.6997 41.3509 46.0061 43.0972C44.4972 44.7117 42.6957 46.0956 40.6017 47.2488C38.5077 48.402 36.2598 49.2916 33.8579 49.9176C31.4559 50.5766 29.0232 50.9061 26.5597 50.9061C23.08 50.9061 20.0622 50.346 17.5063 49.2257C14.9812 48.1054 13.0258 46.5404 11.6401 44.5305C10.2544 42.4876 9.5615 40.0659 9.5615 37.2652C9.5615 35.2224 10.0388 33.3278 10.9934 31.5815C11.948 29.8023 13.2722 28.2372 14.9658 26.8863C16.6903 25.5025 18.6611 24.4316 20.8782 23.6738C23.1262 22.916 25.5281 22.5371 28.084 22.5371C30.6091 22.5371 32.7801 22.8995 34.5969 23.6244C36.4446 24.3163 37.8765 25.3048 38.8927 26.5898C39.9089 27.8748 40.417 29.4069 40.417 31.1862C40.417 32.7018 40.032 34.1351 39.2622 35.486C38.5231 36.8369 37.4915 38.0395 36.1674 39.0939C34.8433 40.1153 33.3036 40.9226 31.5483 41.5157C29.8239 42.0758 27.9762 42.3558 26.0054 42.3558C23.5111 42.3558 21.5403 41.8781 20.093 40.9226C18.6457 39.9671 17.922 38.682 17.922 37.0675C17.922 35.6837 18.5379 34.4316 19.7697 33.3114C21.0014 32.1582 22.6335 31.2521 24.6659 30.5931C26.6983 29.9012 28.9308 29.5552 31.3636 29.5552C33.9502 29.5552 36.3368 29.8847 38.5231 30.5437C40.7095 31.2026 42.6033 32.1417 44.2046 33.3608C45.8367 34.547 47.0992 35.9473 47.9923 37.5618C48.8853 39.1763 49.3318 40.939 49.3318 42.8501C49.3318 45.2554 48.7621 47.4959 47.6227 49.5717C46.4834 51.6474 44.8821 53.4596 42.8189 55.0082C40.7557 56.5898 38.3538 57.8089 35.6131 58.6656C32.9033 59.5552 29.9624 60 26.7907 60C22.8491 60 19.2462 59.4399 15.982 58.3196C12.7179 57.1993 9.88483 55.6013 7.48291 53.5255C5.11178 51.4827 3.27955 49.0774 1.98621 46.3097C0.662068 43.5091 0 40.4119 0 37.0181C0 33.6573 0.662068 30.5766 1.98621 27.7759C3.27955 24.9753 5.12718 22.5535 7.5291 20.5107C9.93103 18.4349 12.7641 16.8369 16.0282 15.7166C19.2924 14.5634 22.8799 13.9868 26.7907 13.9868C29.5313 13.9868 32.0564 14.3163 34.366 14.9753C36.7063 15.6343 38.7079 16.5568 40.3708 17.743C42.0644 18.9292 43.2808 20.2965 44.0198 21.8451L43.6965 21.9934C42.9882 20.4448 41.8027 19.1104 40.1398 17.9901C38.5077 16.8369 36.5369 15.9473 34.2274 15.3213C31.9486 14.6952 29.4697 14.3822 26.7907 14.3822C22.9414 14.3822 19.4001 14.9423 16.1668 16.0626C12.9334 17.1499 10.1312 18.6985 7.76006 20.7084C5.41972 22.7183 3.60288 25.1071 2.30954 27.8748C1.0162 30.6425 0.369527 33.6903 0.369527 37.0181C0.369527 40.313 1.0162 43.3608 2.30954 46.1615C3.60288 48.9292 5.41972 51.3015 7.76006 53.2784C10.1004 55.2883 12.8872 56.8369 16.1206 57.9242C19.354 59.0445 22.9106 59.6046 26.7907 59.6046C29.9316 59.6046 32.8417 59.1763 35.5207 58.3196C38.1998 57.4959 40.5401 56.3097 42.5417 54.7611C44.5741 53.2455 46.1446 51.4662 47.2532 49.4234C48.3926 47.4135 48.9623 45.2224 48.9623 42.8501C48.9623 40.3789 48.1924 38.1713 46.6527 36.2273C45.1438 34.2834 43.0652 32.7677 40.417 31.6804C37.7687 30.5601 34.7355 30 31.3174 30C28.9462 30 26.7599 30.3295 24.7583 30.9885C22.7875 31.6145 21.217 32.4547 20.0468 33.5091C18.8766 34.5634 18.2916 35.7331 18.2916 37.0181C18.2916 38.5338 18.9844 39.7364 20.3701 40.626C21.7559 41.5157 23.6343 41.9605 26.0054 41.9605C27.9146 41.9605 29.7161 41.6804 31.4098 41.1203C33.1034 40.5601 34.5969 39.7858 35.8903 38.7974C37.1836 37.8089 38.1998 36.6722 38.9389 35.3871C39.6779 34.0692 40.0474 32.6689 40.0474 31.1862C40.0474 29.5058 39.5547 28.056 38.5693 26.8369C37.5839 25.5848 36.1982 24.6293 34.4122 23.9703C32.6261 23.2784 30.5167 22.9325 28.084 22.9325C25.5897 22.9325 23.2494 23.3114 21.063 24.0692C18.8766 24.7941 16.952 25.8155 15.2892 27.1334C13.6263 28.4514 12.3176 29.9835 11.3629 31.7298C10.4083 33.4432 9.93103 35.2883 9.93103 37.2652C9.93103 40.7908 11.3321 43.5585 14.1344 45.5684C16.9366 47.5453 20.8475 48.5338 25.8669 48.5338C28.7615 48.5338 31.3482 48.1054 33.6269 47.2488C35.9365 46.3921 38.1074 45.1236 40.1398 43.4432C42.203 41.7298 44.297 39.6211 46.4218 37.117C48.5465 34.5799 50.8715 31.6474 53.3966 28.3196C55.9217 24.9918 58.8009 21.2685 62.0343 17.1499Z" fill="#7FA55D"/>
<path d="M61.9798 47.2982L64.0794 33.8191H66.5316L64.432 47.2982H61.9798ZM65.8181 31.713C65.3916 31.713 65.0308 31.5609 64.7355 31.2566C64.4457 30.9466 64.3118 30.578 64.3336 30.1509C64.3555 29.718 64.525 29.3494 64.8421 29.0452C65.1593 28.7352 65.5283 28.5801 65.9493 28.5801C66.3758 28.5801 66.7339 28.7352 67.0237 29.0452C67.3135 29.3494 67.4502 29.718 67.4338 30.1509C67.4119 30.578 67.2424 30.9466 66.9253 31.2566C66.6136 31.5609 66.2446 31.713 65.8181 31.713Z" fill="#7FA55D"/>
<path d="M72.4306 47.5615C71.4081 47.5615 70.5415 47.2836 69.8307 46.7278C69.1254 46.1662 68.6251 45.3676 68.3298 44.3321C68.04 43.2907 68.0072 42.0417 68.2314 40.585C68.461 39.1282 68.8848 37.8821 69.5026 36.8466C70.1205 35.8111 70.8695 35.0184 71.7498 34.4685C72.6301 33.9185 73.5788 33.6436 74.5958 33.6436C75.3776 33.6436 75.9845 33.784 76.4165 34.0648C76.8539 34.3398 77.1765 34.6615 77.3843 35.0301C77.592 35.3987 77.7479 35.7234 77.8517 36.0042H77.9912L79.0328 29.326H81.485L78.6965 47.2982H76.3017L76.6379 45.2009H76.4329C76.2415 45.4875 75.9763 45.8151 75.6373 46.1837C75.3038 46.5523 74.8773 46.874 74.3579 47.149C73.8385 47.424 73.196 47.5615 72.4306 47.5615ZM73.2589 45.3237C73.9642 45.3237 74.5957 45.1248 75.1535 44.727C75.7166 44.3233 76.1841 43.7646 76.5559 43.0509C76.9332 42.3371 77.1956 41.5064 77.3433 40.5586C77.4909 39.6226 77.4881 38.8035 77.335 38.1015C77.182 37.3995 76.8867 36.8525 76.4493 36.4605C76.0119 36.0685 75.435 35.8725 74.7188 35.8725C73.9806 35.8725 73.3382 36.0773 72.7914 36.4868C72.2447 36.8963 71.7963 37.455 71.4464 38.1629C71.1019 38.8708 70.8613 39.6694 70.7246 40.5586C70.5825 41.4596 70.577 42.2699 70.7082 42.9894C70.8395 43.709 71.1156 44.2794 71.5366 44.7007C71.9576 45.116 72.5317 45.3237 73.2589 45.3237Z" fill="#7FA55D"/>
<path d="M87.429 29.326L84.6405 47.2982H82.1883L84.9768 29.326H87.429Z" fill="#7FA55D"/>
<path d="M93.3362 47.5702C92.1005 47.5702 91.078 47.2865 90.2688 46.719C89.4651 46.1457 88.9019 45.3413 88.5793 44.3058C88.2567 43.2644 88.2048 42.0446 88.4235 40.6464C88.6367 39.2657 89.0659 38.0489 89.7111 36.9958C90.3563 35.9427 91.16 35.1208 92.1223 34.5299C93.0901 33.939 94.159 33.6436 95.3291 33.6436C96.0399 33.6436 96.7097 33.7694 97.3385 34.0209C97.9727 34.2725 98.5113 34.6674 98.9542 35.2056C99.3971 35.7438 99.7033 36.4429 99.8728 37.3029C100.048 38.1571 100.042 39.1955 99.8564 40.4182L99.7169 41.3484H89.6947L89.9818 39.3827H97.5927C97.7076 38.6924 97.6775 38.081 97.5025 37.5487C97.3276 37.0104 97.0268 36.5863 96.6004 36.2762C96.1793 35.9661 95.649 35.8111 95.0093 35.8111C94.3531 35.8111 93.7408 35.9954 93.1721 36.364C92.6035 36.7325 92.1278 37.2035 91.7451 37.7768C91.3678 38.3443 91.13 38.9293 91.0315 39.5319L90.7445 41.3309C90.6023 42.3137 90.6269 43.1035 90.8183 43.7002C91.0151 44.297 91.3596 44.7299 91.8517 44.999C92.3438 45.2681 92.9589 45.4027 93.697 45.4027C94.1727 45.4027 94.6129 45.3325 95.0175 45.1921C95.4275 45.0458 95.7911 44.8323 96.1083 44.5515C96.4254 44.2648 96.6906 43.9079 96.9038 43.4809L99.151 43.9284C98.8503 44.6597 98.4184 45.3003 97.8552 45.8502C97.292 46.3943 96.6277 46.8185 95.8622 47.1227C95.1022 47.421 94.2602 47.5702 93.3362 47.5702Z" fill="#7FA55D"/>
</svg>
